<svg width="358" height="108" viewBox="0 0 358 108" fill="none" xmlns="http://www.w3.org/2000/svg">
<g clip-path="url(#clip0_20_20)">
<path d="M343 108C351.284 108 358 101.284 358 93C358 84.7157 351.284 78 343 78C334.716 78 328 84.7157 328 93C328 101.284 334.716 108 343 108Z" fill="#1DBF73"/>
<path d="M232.019 67.9814L232.047 104.953H244.082H256.117L256.164 84.6877L256.22 64.4221L256.426 63.1362C257.091 59.0831 258.29 56.409 260.379 54.3032C261.877 52.7844 263.376 51.9738 265.717 51.3961C266.476 51.2191 266.813 51.2004 272.582 51.1725L278.642 51.1352V78.0629V105H290.677H302.703L302.74 84.8927C302.768 62.8194 302.74 64.1332 303.33 61.487C304.67 55.5424 308.004 52.0297 313.033 51.2936C313.858 51.1725 315.141 51.1445 320.826 51.1445H327.625V50.6507C327.625 50.3898 327.71 46.2062 327.813 41.3611C327.916 36.516 328 32.202 328 31.7827V31L322.643 31.0466C318.306 31.0838 317.07 31.1211 316.199 31.2422C312.303 31.8013 309.69 33.0219 307.292 35.3886C305.7 36.9632 304.632 38.482 303.349 40.9698L302.712 42.2183V36.6092V31.0093L286.725 31.0466C269.37 31.0745 270.138 31.0559 267.74 31.587C263.816 32.4535 260.744 34.6245 258.346 38.2397C257.7 39.2088 256.848 40.7089 256.454 41.5661L256.173 42.1531V36.5812L256.164 31.0186H244.082H232L232.019 67.9814Z" fill="white"/>
<path d="M186.607 31.0811C174.012 31.8182 164.248 37.7241 158.3 48.2036C155.526 53.0795 153.823 58.6642 153.125 65.1465C152.938 66.8758 152.966 71.9785 153.171 73.6983C153.553 76.9017 154.149 79.6326 155.089 82.4864C157.965 91.2271 163.429 98.3048 170.727 102.727C176.442 106.205 183.311 108 190.842 108C204.544 108 216.011 102.047 222.164 91.7469C223.049 90.2727 224.445 87.3623 224.324 87.2489C224.277 87.1922 204.013 81.3146 203.501 81.2012C203.278 81.154 203.231 81.2107 202.784 82.1273C201.444 84.8487 199.284 86.6441 196.092 87.6836C193.504 88.5246 189.892 88.6663 186.886 88.0521C181.152 86.8804 177.475 82.8643 176.274 76.4859C176.2 76.0702 176.135 75.6544 176.135 75.5599C176.135 75.4087 177.373 75.3992 200.839 75.3992C216.877 75.3992 225.571 75.3709 225.608 75.3048C225.757 75.0685 225.925 72.9424 225.981 70.6745C226.158 63.4551 225.124 57.4452 222.713 51.6999C220.368 46.1342 216.663 41.3055 212.111 37.8753C205.549 32.9332 196.445 30.5142 186.607 31.0811ZM191.354 49.0352C194.463 49.4037 196.948 50.5376 198.996 52.5504C201.128 54.6387 202.412 57.3696 202.794 60.6297L202.859 61.1305H189.483H176.116L176.181 60.7242C176.312 59.9021 176.879 57.8137 177.196 56.9727C178.881 52.5504 181.459 50.2258 185.694 49.3281C187.379 48.9596 189.697 48.8462 191.354 49.0352Z" fill="white"/>
<path d="M85 34.0154C85 34.062 111.37 107.422 111.492 107.739L111.595 108H122.009C130.208 108 132.433 107.972 132.49 107.888C132.668 107.618 159.056 34.4908 159 34.4256C158.972 34.3883 153.534 34.3697 146.933 34.379L134.922 34.4069L128.489 55.865C124.949 67.666 122.047 77.3137 122.028 77.295C122.009 77.2857 119.108 67.5448 115.586 55.6506L109.163 34.0341L97.0766 34.0061C90.4373 33.9968 85 33.9968 85 34.0154Z" fill="white"/>
<path d="M40 0.0232194C27.4475 -0.577824 17.1804 10.602 15 20.5232C14.3211 23.6122 14.358 23.5442 14.3196 28.5232V33.0836H6.4971H0V43.0232V52.9261H6.5067H14.3196V79.4747V107.523H25.5H37.7777V79.4471L37.7969 52.9261H49.5067H60.5V79.4747L61 107.523H74H84.5V69.0232V32.5232H61.5H37.7969V30.4287C37.7969 28.5272 37.8353 27.581 37.9312 27.0941C38.5743 23.8972 40.8527 21.1295 44.5 20.5232C45.1623 20.413 46.5692 20.5232 53 20.5232H61V11.5232V0.0232194H51.5C45.5 0.0232194 40.5855 -0.013526 40 0.0232194Z" fill="white"/>
</g>
<defs>
<clipPath id="clip0_20_20">
<rect width="358" height="108" fill="white"/>
</clipPath>
</defs>
</svg>
